<?xml version="1.0" encoding="UTF-8" standalone="no"?>
<!-- Created with Inkscape (http://www.inkscape.org/) -->

<svg
   xmlns:dc="http://purl.org/dc/elements/1.1/"
   xmlns:cc="http://creativecommons.org/ns#"
   xmlns:rdf="http://www.w3.org/1999/02/22-rdf-syntax-ns#"
   xmlns:svg="http://www.w3.org/2000/svg"
   xmlns="http://www.w3.org/2000/svg"
   xmlns:sodipodi="http://sodipodi.sourceforge.net/DTD/sodipodi-0.dtd"
   xmlns:inkscape="http://www.inkscape.org/namespaces/inkscape"
   width="187.8589mm"
   height="50.468208mm"
   viewBox="0 0 187.8589 50.468208"
   version="1.1"
   id="svg4988"
   inkscape:version="0.92.3 (2405546, 2018-03-11)"
   sodipodi:docname="logo-seerise.svg">
  <defs
     id="defs4982" />
  <sodipodi:namedview
     id="base"
     pagecolor="#ffffff"
     bordercolor="#666666"
     borderopacity="1.0"
     inkscape:pageopacity="0.0"
     inkscape:pageshadow="2"
     inkscape:zoom="0.35"
     inkscape:cx="66.437392"
     inkscape:cy="86.801495"
     inkscape:document-units="mm"
     inkscape:current-layer="layer1"
     showgrid="false"
     fit-margin-top="0"
     fit-margin-left="0"
     fit-margin-right="0"
     fit-margin-bottom="0"
     inkscape:window-width="1600"
     inkscape:window-height="870"
     inkscape:window-x="1366"
     inkscape:window-y="0"
     inkscape:window-maximized="1" />
  <metadata
     id="metadata4985">
    <rdf:RDF>
      <cc:Work
         rdf:about="">
        <dc:format>image/svg+xml</dc:format>
        <dc:type
           rdf:resource="http://purl.org/dc/dcmitype/StillImage" />
        <dc:title></dc:title>
      </cc:Work>
    </rdf:RDF>
  </metadata>
  <g
     inkscape:label="Camada 1"
     inkscape:groupmode="layer"
     id="layer1"
     transform="translate(64.447274,-121.33136)">
    <g
       transform="matrix(1.2653471,0,0,1.2653471,-875.40664,493.42501)"
       id="g4864">
      <path
         inkscape:connector-curvature="0"
         id="path1020"
         d="m 661.81366,-254.22756 c -3.35034,-0.39835 -5.97655,-1.25411 -8.38914,-2.73359 -0.49527,-0.30374 -0.97233,-0.52019 -1.18949,-0.53966 -0.19943,-0.0178 -0.46564,-0.0999 -0.59165,-0.18228 -0.12597,-0.0824 -0.33032,-0.18179 -0.45407,-0.22093 -0.12363,-0.039 -0.22499,-0.10887 -0.22499,-0.15487 0,-0.0462 -0.17999,-0.0596 -0.39996,-0.0301 -0.28169,0.0377 -0.39997,0.0167 -0.39997,-0.0712 0,-0.0747 -0.0786,-0.10419 -0.1952,-0.0739 -0.10741,0.0281 -0.21705,-3.8e-4 -0.24369,-0.0633 -0.0311,-0.0729 -0.10522,-0.0441 -0.20481,0.0798 -0.15468,0.19212 -0.15782,0.19212 -0.30895,0 -0.15011,-0.19083 -0.15537,-0.19031 -0.31217,0.031 -0.0877,0.12363 -0.2215,0.22499 -0.29728,0.22499 -0.1599,0 -0.18401,-0.15962 -0.0377,-0.24998 0.18409,-0.11369 0.10215,-0.19989 -0.20018,-0.21063 -0.22775,-0.009 -0.29978,0.0333 -0.29978,0.1724 0,0.10215 -0.1324,0.25154 -0.29994,0.3382 -0.16503,0.0853 -0.3007,0.21023 -0.30153,0.27756 0,0.0785 -0.037,0.0685 -0.0998,-0.0275 -0.0618,-0.0941 -0.1264,-0.11267 -0.17347,-0.05 -0.0754,0.1004 -0.32473,0.16287 -0.64997,0.16259 -0.10639,-9e-5 -0.17497,0.0759 -0.17497,0.19361 0,0.10653 -0.0599,0.19378 -0.13327,0.19378 -0.0732,0 -0.19328,0.11252 -0.26686,0.24999 -0.0735,0.13751 -0.17121,0.2556 -0.2169,0.26247 -0.0457,0.007 -0.11691,0.0183 -0.15807,0.025 -0.12217,0.0203 -0.51267,0.44146 -0.45913,0.49499 0.0272,0.027 -0.0462,0.0795 -0.1625,0.11647 -0.15292,0.0487 -0.19481,0.12055 -0.1508,0.25912 0.034,0.10741 0.0146,0.19194 -0.0459,0.19194 -0.0588,0 -0.10682,0.0674 -0.10682,0.14997 0,0.19663 -0.34308,0.19258 -0.54206,-0.007 -0.0859,-0.0859 -0.19698,-0.13123 -0.24664,-0.10039 -0.10814,0.0666 -0.23583,-0.22233 -0.15567,-0.35205 0.0311,-0.05 0.14364,-0.0909 0.25031,-0.0909 0.10682,0 0.19411,-0.0528 0.19411,-0.11705 0,-0.0644 0.0735,-0.19844 0.16352,-0.29785 0.0899,-0.0994 0.16872,-0.28091 0.17499,-0.40337 0.009,-0.15103 0.0919,-0.24087 0.26143,-0.27922 0.15296,-0.0346 0.30819,-0.18135 0.39997,-0.3781 0.0826,-0.17685 0.2212,-0.3453 0.30825,-0.37431 0.0871,-0.0291 0.42144,-0.21126 0.74314,-0.40498 0.32168,-0.19371 0.78586,-0.39724 1.03151,-0.45229 0.24562,-0.0551 0.57062,-0.18841 0.72221,-0.29635 0.30098,-0.21434 0.64566,-0.25646 0.74767,-0.0913 0.0443,0.0718 0.1096,0.0678 0.2059,-0.0131 0.10741,-0.0891 0.17463,-0.0893 0.28136,-7.8e-4 0.1023,0.085 0.15037,0.0861 0.17767,0.004 0.0205,-0.0618 0.19367,-0.14453 0.38468,-0.18403 0.29174,-0.0602 0.3765,-0.0349 0.52957,0.15807 0.1001,0.12641 0.23254,0.22983 0.29401,0.22983 0.0614,0 -0.36745,-0.48372 -0.95324,-1.07493 -1.26519,-1.27694 -1.86871,-2.01693 -2.78526,-3.41523 -0.51852,-0.79109 -0.69793,-0.99875 -0.74865,-0.86657 -0.0535,0.13941 -0.0853,0.14737 -0.1604,0.0405 -0.0732,-0.1042 -0.10492,-0.10595 -0.14438,-0.009 -0.0281,0.0687 -0.1112,0.12494 -0.18522,0.12494 -0.0741,0 -0.20526,0.0707 -0.29165,0.15714 -0.0865,0.0865 -0.15715,0.10902 -0.15715,0.05 0,-0.0589 -0.045,-0.10697 -0.0998,-0.10697 -0.0549,0 -0.0998,0.09 -0.0998,0.2 0,0.11003 -0.09,0.28998 -0.19996,0.39998 -0.11018,0.11018 -0.20001,0.26746 -0.20001,0.34996 0,0.0826 -0.0431,0.15 -0.0959,0.15 -0.13561,0 -0.604,0.52252 -0.604,0.67392 0,0.0693 -0.045,0.12597 -0.0998,0.12597 -0.0549,0 -0.0998,0.0702 -0.0998,0.1559 0,0.0858 0.0373,0.13269 0.0833,0.10434 0.0457,-0.0283 0.0833,0.0147 0.0833,0.0941 0,0.0801 -0.0373,0.14569 -0.0833,0.14569 -0.0457,0 -0.0833,0.09 -0.0833,0.19997 0,0.15554 -0.0665,0.19998 -0.30001,0.19998 -0.165,0 -0.29997,-0.04 -0.29997,-0.0888 0,-0.0489 -0.0788,-0.0827 -0.17495,-0.0751 -0.11077,0.009 -0.18668,-0.0685 -0.20694,-0.21109 -0.0234,-0.16424 0.0183,-0.22499 0.1542,-0.22499 0.13664,0 0.21874,-0.12172 0.30846,-0.45707 0.0671,-0.25139 0.0978,-0.4966 0.0678,-0.54492 -0.0298,-0.0485 0.082,-0.18857 0.24845,-0.31168 0.16651,-0.12319 0.30278,-0.30539 0.30278,-0.40503 0,-0.0997 0.0478,-0.18119 0.1058,-0.18119 0.0583,0 0.0814,-0.0397 0.0511,-0.0885 -0.056,-0.0906 1.17997,-1.04144 1.6063,-1.23569 0.28857,-0.13137 0.29058,-0.1777 0.0295,-0.68925 -0.39899,-0.78214 -0.91312,-2.248 -1.23478,-3.52077 -0.28115,-1.11235 -0.34381,-1.2654 -0.46729,-1.1419 -0.0785,0.0785 -0.20485,0.12187 -0.28089,0.0965 -0.1017,-0.0339 -0.12494,0.0232 -0.088,0.21693 0.0275,0.14467 0.0131,0.26302 -0.0336,0.26302 -0.0463,0 -0.17705,0.18219 -0.29063,0.40485 -0.11369,0.22269 -0.27203,0.42998 -0.35203,0.46067 -0.0799,0.0307 -0.14555,0.11852 -0.14555,0.19513 0,0.0767 -0.0441,0.13941 -0.0981,0.13941 -0.0541,0 -0.12626,0.11253 -0.16085,0.24998 -0.0343,0.13751 -0.13049,0.24999 -0.21351,0.24999 -0.10829,0 -0.13693,0.0728 -0.10142,0.25785 0.0322,0.16756 0,0.27714 -0.0941,0.3129 -0.0788,0.0304 -0.11968,0.11662 -0.0907,0.19211 0.0732,0.19079 -0.38329,0.18056 -0.5768,-0.0131 -0.0826,-0.0826 -0.19338,-0.14999 -0.24641,-0.14999 -0.12421,0 -0.23616,-0.28939 -0.15975,-0.41306 0.0322,-0.0523 0.1378,-0.07 0.23435,-0.0393 0.13284,0.0424 0.22169,-0.0463 0.36494,-0.36398 0.10419,-0.23083 0.1944,-0.46783 0.20067,-0.52665 0.007,-0.0587 0.0183,-0.15595 0.0267,-0.21586 0.009,-0.0601 0.12203,-0.15761 0.25261,-0.2171 0.15752,-0.0716 0.2593,-0.22518 0.3026,-0.45598 0.0358,-0.19129 0.13532,-0.40588 0.22075,-0.47686 0.0855,-0.0709 0.41478,-0.44888 0.73174,-0.83981 l 0.57628,-0.7108 -0.0852,-1.0951 c -0.43739,-5.61773 1.76433,-11.4072 5.88169,-15.46599 2.61856,-2.58129 5.53833,-4.25217 8.95806,-5.12635 8.48215,-2.16823 17.03557,1.14776 21.84648,8.46945 3.06357,4.6625 3.98914,10.88527 2.42844,16.32714 -0.25629,0.8937 -0.25297,0.95026 0.056,0.95026 0.14117,0 0.40402,0.11237 0.58412,0.2498 0.18017,0.13751 0.45837,0.2596 0.61829,0.27159 0.15996,0.0117 0.34019,0.0865 0.40054,0.16532 0.0794,0.1039 0.12933,0.11164 0.18088,0.0285 0.0818,-0.1321 0.55933,-0.1581 0.55933,-0.0304 0,0.0468 -0.17463,0.16358 -0.38812,0.25982 -0.32808,0.14798 -0.42479,0.15505 -0.62499,0.0459 -0.13021,-0.071 -0.37181,-0.13167 -0.53678,-0.13474 -0.21235,-0.003 -0.32894,-0.0715 -0.39909,-0.2315 -0.23612,-0.53824 -0.83836,-0.35081 -1.09869,0.34195 -0.25313,0.67359 -1.11124,2.37862 -1.51525,3.01069 -0.18522,0.28982 -0.33678,0.54854 -0.33678,0.57498 0,0.102 0.19284,0.0409 0.34222,-0.10843 0.19463,-0.19467 0.65774,-0.28952 0.65774,-0.13474 0,0.0618 0.0634,0.0884 0.14087,0.0588 0.09,-0.0346 0.16284,0.0338 0.20189,0.18929 0.0714,0.28497 0.25725,0.32725 0.25725,0.0586 0,-0.13707 0.078,-0.18697 0.30178,-0.19336 0.19615,-0.006 0.27788,0.0301 0.23355,0.10186 -0.0443,0.0717 -0.009,0.0874 0.10331,0.0444 0.10186,-0.039 0.14671,-0.0256 0.11063,0.0329 -0.0605,0.0979 0.0753,0.13985 0.33686,0.10376 0.0748,-0.0102 0.24121,0.0799 0.36971,0.20064 0.12845,0.1207 0.34718,0.21943 0.48602,0.21943 0.14409,0 0.27586,0.0697 0.30691,0.1625 0.0573,0.17092 0.65845,0.51246 0.90201,0.51246 0.0858,0 0.11982,0.0599 0.0852,0.14998 -0.0671,0.17506 0.0745,0.1992 0.234,0.0397 0.13664,-0.13663 0.69289,0.11136 0.65478,0.29183 -0.0148,0.065 0.02,0.11822 0.075,0.11822 0.0549,0 0.0998,0.0408 0.0998,0.0906 0,0.0498 -0.087,0.0678 -0.19307,0.04 -0.12641,-0.033 -0.17219,-0.10493 -0.13255,-0.20801 0.0438,-0.11442 0.0167,-0.14073 -0.0997,-0.096 -0.44682,0.17144 -0.84097,0.18401 -0.96807,0.031 -0.0719,-0.0867 -0.22657,-0.1583 -0.34358,-0.15914 -0.30525,-0.003 -0.50142,-0.15336 -0.43239,-0.33322 0.0666,-0.17398 -0.2103,-0.30498 -0.45016,-0.21294 -0.0815,0.0313 -0.20579,-0.0131 -0.27637,-0.0978 -0.10522,-0.12655 -0.10346,-0.15601 0.009,-0.16266 0.0754,-0.004 0.003,-0.0696 -0.16274,-0.14467 -0.16498,-0.0751 -0.38438,-0.11165 -0.48748,-0.0811 -0.13167,0.0389 -0.16478,0.0186 -0.11121,-0.0684 0.05,-0.0811 0.0284,-0.10623 -0.0624,-0.0732 -0.0766,0.0278 -0.12772,0.10098 -0.11398,0.16296 0.0346,0.15623 -0.24225,0.14204 -0.30273,-0.0155 -0.0693,-0.18059 -1.63372,-0.15177 -1.98826,0.0367 -0.14641,0.0777 -0.47423,0.41141 -0.72855,0.74141 -0.60854,0.78966 -2.22455,2.42733 -3.11427,3.15598 -2.98256,2.44267 -6.7013,4.00509 -10.44777,4.38955 -0.94319,0.0967 -3.35805,0.11968 -4.04219,0.0383 z m 3.49977,-1.53853 c 3.38057,-0.31994 6.43668,-1.47242 9.19949,-3.46916 0.65025,-0.46996 0.72107,-0.60861 0.37599,-0.73626 -0.1878,-0.0694 -0.23409,-0.0425 -0.28651,0.16617 -0.0766,0.30458 -0.34466,0.4581 -0.8818,0.50468 -0.22418,0.0196 -0.5201,0.0528 -0.65758,0.0739 -0.13751,0.0213 -0.46319,0.0719 -0.72376,0.11296 -0.26057,0.0408 -0.55304,0.039 -0.64994,-0.003 -0.17173,-0.0763 -0.50582,-0.13591 -0.84308,-0.15046 -0.0918,-0.003 -0.19166,-0.0716 -0.22189,-0.15034 -0.0303,-0.0788 -0.1023,-0.14321 -0.16006,-0.14321 -0.0577,0 -0.27707,-0.10858 -0.48723,-0.24121 -0.21012,-0.13269 -0.56775,-0.29686 -0.79467,-0.36484 -0.22691,-0.0678 -0.3889,-0.16193 -0.35998,-0.20876 0.0292,-0.0469 -0.0425,-0.0852 -0.15914,-0.0852 -0.11661,0 -0.18867,-0.0373 -0.1604,-0.0831 0.0538,-0.0868 -0.87997,-0.4168 -1.1792,-0.4168 -0.0946,0 -0.14438,-0.045 -0.11048,-0.0998 0.0836,-0.13532 -0.11033,-0.1264 -0.33741,0.0152 -0.1397,0.0872 -0.29675,0.0872 -0.64291,0 -0.68804,-0.17324 -0.92889,-0.14409 -1.51954,0.18462 -0.29651,0.16499 -0.59048,0.29999 -0.65318,0.29999 -0.19217,0 -0.97604,0.61006 -1.02513,0.79782 -0.0254,0.0972 -0.31066,0.3109 -0.63385,0.47485 -0.32322,0.16395 -0.58924,0.33839 -0.59122,0.38765 -0.009,0.21155 -0.26725,0.53955 -0.42586,0.53955 -0.0949,0 -0.22651,0.0867 -0.29264,0.19253 -0.0661,0.1058 -0.22209,0.20714 -0.34652,0.22499 -0.12451,0.018 -0.27833,0.13722 -0.34185,0.26507 -0.0636,0.12801 -0.28334,0.34667 -0.48844,0.48602 -0.31431,0.2136 -0.41117,0.23596 -0.61662,0.14234 -0.31974,-0.1457 -0.33432,-0.14263 -0.33432,0.0709 0,0.10653 -0.1343,0.24615 -0.32499,0.3373 l -0.32498,0.15546 0.54477,0.16313 c 1.81536,0.54372 4.31867,0.76007 6.45478,0.55788 z m -8.0497,-1.87856 c 1.8e-4,-0.0956 0.0843,-0.11442 0.30019,-0.0671 0.17493,0.0383 0.29999,0.025 0.29999,-0.0326 0,-0.11179 0.88538,-0.43812 0.99846,-0.36822 0.0405,0.0251 0.23714,-0.13678 0.43707,-0.35951 0.31528,-0.35115 0.4113,-0.40083 0.72318,-0.37395 0.32411,0.0279 0.37336,-0.001 0.49853,-0.29934 0.0764,-0.18167 0.17516,-0.30789 0.21954,-0.28049 0.0441,0.0275 0.25521,-0.0967 0.46859,-0.27588 l 0.38798,-0.32572 -0.46875,-0.22693 c -0.51818,-0.25082 -0.88809,-0.72314 -1.25871,-1.60704 -0.12685,-0.30251 -0.34051,-0.76803 -0.47482,-1.03453 -0.24109,-0.47833 -0.24685,-0.48217 -0.44878,-0.29999 -0.11237,0.10142 -0.32329,0.18457 -0.46841,0.18457 -0.18965,0 -0.26002,0.0491 -0.25011,0.17447 0.0174,0.21893 -0.63829,0.80664 -0.82143,0.73636 -0.0748,-0.0286 -0.16248,-0.009 -0.19498,0.0434 -0.0324,0.0528 -0.14641,0.0956 -0.25322,0.0956 -0.10668,0 -0.19405,0.0437 -0.19405,0.0967 0,0.0535 -0.064,0.0722 -0.14219,0.0424 -0.0782,-0.0299 -0.23296,-0.006 -0.34391,0.0535 -0.13356,0.0715 -0.22276,0.0741 -0.26371,0.009 -0.0886,-0.14351 -0.44866,-0.12392 -0.45803,0.0248 -0.007,0.0999 -0.0183,0.0999 -0.0583,0 -0.0601,-0.14922 -0.39621,-0.16659 -0.48372,-0.0251 -0.0957,0.15496 -0.23006,0.11998 -0.47343,-0.12333 -0.12275,-0.12275 -0.36308,-0.23235 -0.53383,-0.24326 -0.17976,-0.0117 -0.59114,-0.21206 -0.97747,-0.47655 -0.36689,-0.25117 -0.75661,-0.45668 -0.86608,-0.45668 -0.1096,0 -0.199,-0.0368 -0.199,-0.0823 0,-0.0944 -0.89719,-0.51781 -1.09748,-0.51781 -0.0735,0 -0.28105,-0.11252 -0.46134,-0.24999 -0.18027,-0.13751 -0.37717,-0.24998 -0.43752,-0.24998 -0.0605,0 -0.13576,-0.0674 -0.1674,-0.15 -0.0373,-0.0978 -0.19304,-0.14998 -0.44683,-0.14998 -0.21994,0 -0.38925,-0.0487 -0.38925,-0.11165 0,-0.0649 -0.10346,-0.0919 -0.24653,-0.0646 -0.13561,0.026 -0.26323,-0.003 -0.2837,-0.0633 -0.0251,-0.0741 -0.0944,-0.0631 -0.21108,0.033 -0.15108,0.12466 -0.18724,0.12466 -0.27571,0 -0.0808,-0.11398 -0.0894,-0.10609 -0.0425,0.0392 0.15955,0.492 1.43931,2.14507 2.54372,3.28582 1.70836,1.76455 4.09956,3.4961 5.03447,3.64559 0.20952,0.0335 0.38089,0.0938 0.38089,0.13401 0,0.04 0.3149,0.0681 0.69975,0.0623 0.50985,-0.009 0.69977,-0.0469 0.69994,-0.14379 z m 18.3991,-2.54096 c 0,-0.12056 -0.0557,-0.0909 -0.25949,0.13824 -0.1898,0.21337 -0.18968,0.21365 0.0343,0.076 0.12363,-0.0761 0.22497,-0.17239 0.22497,-0.21417 z m -2.20068,0.1267 c 0.12699,-0.0804 0.12845,-0.11355 0.0102,-0.22347 -0.11486,-0.10682 -0.12509,-0.10331 -0.0595,0.0209 0.064,0.121 0.0536,0.12611 -0.0538,0.0267 -0.18935,-0.17556 -0.0254,-0.29283 0.20682,-0.14788 0.26627,0.16628 0.69681,0.1551 0.69681,-0.0181 0,-0.0767 0.0674,-0.1652 0.14994,-0.19687 0.0826,-0.0317 0.15001,-0.1264 0.15001,-0.21068 0,-0.0842 0.0449,-0.15311 0.0998,-0.15311 0.0549,0 0.1,0.0713 0.1,0.1583 0,0.22871 0.24426,0.11486 0.28058,-0.13093 0.0295,-0.19962 0.4194,-0.40226 0.4194,-0.21799 0,0.18622 0.29447,0.0808 0.58456,-0.20934 0.30215,-0.30216 0.51537,-0.3849 0.51537,-0.19998 0,0.055 0.0674,0.0998 0.14996,0.0998 0.0884,0 0.15064,-0.0924 0.15154,-0.225 0.003,-0.3517 0.13868,-0.4938 0.40857,-0.42602 0.1947,0.0488 0.27576,0.003 0.42072,-0.24349 0.0988,-0.16719 0.26535,-0.3499 0.37022,-0.40602 0.10492,-0.0561 0.39574,-0.38941 0.64639,-0.74069 l 0.45573,-0.63867 -0.65393,-0.86705 c -1.00452,-1.33188 -1.44376,-2.31448 -1.62572,-3.63688 l -0.0735,-0.53423 -0.26797,0.21099 c -0.19071,0.15018 -0.28881,0.1773 -0.34025,0.0941 -0.0527,-0.0852 -0.102,-0.0766 -0.18198,0.032 -0.0603,0.082 -0.17701,0.17115 -0.25929,0.19833 -0.0824,0.0272 -0.15216,0.11311 -0.15533,0.1912 -0.0165,0.40898 -0.1728,0.68504 -0.37558,0.66383 -0.14554,-0.0152 -0.25495,0.069 -0.35526,0.2736 -0.0798,0.16262 -0.22801,0.38483 -0.32956,0.49383 -0.10142,0.10901 -0.18462,0.25433 -0.18462,0.32298 0,0.0685 -0.14627,0.13897 -0.32498,0.15612 -0.28224,0.0272 -0.32559,0.069 -0.32977,0.31743 -0.003,0.20144 -0.10639,0.36898 -0.34831,0.56642 -0.18892,0.1542 -0.37792,0.2591 -0.41996,0.23313 -0.0419,-0.026 -0.20029,0.0202 -0.35165,0.10258 -0.47016,0.256 -1.62612,0.67282 -1.7145,0.61822 -0.0462,-0.0286 -0.3168,-0.0601 -0.60128,-0.0701 -0.28447,-0.0102 -0.54059,-0.0561 -0.56916,-0.1023 -0.0284,-0.046 -0.16172,-0.084 -0.29599,-0.084 -0.13429,0 -0.24407,-0.0338 -0.24407,-0.0751 0,-0.0412 -0.29512,-0.16407 -0.65579,-0.27297 -0.36065,-0.10887 -0.74123,-0.27761 -0.84571,-0.37498 -0.10463,-0.0973 -0.25942,-0.17701 -0.34419,-0.17701 -0.0848,0 -0.1542,-0.0463 -0.1542,-0.10244 0,-0.0564 -0.10112,-0.14146 -0.22499,-0.18924 -0.12363,-0.0478 -0.39988,-0.22663 -0.61373,-0.39751 -0.21379,-0.17091 -0.42225,-0.3107 -0.46328,-0.3107 -0.0409,0 -0.1,-0.0975 -0.13108,-0.21644 -0.0481,-0.18325 -0.0805,-0.1966 -0.21236,-0.0871 -0.13152,0.10931 -0.22854,0.0725 -0.6257,-0.2369 -0.25851,-0.20138 -0.53659,-0.35332 -0.61796,-0.33765 -0.27967,0.0539 -0.33749,0.65833 -0.16013,1.67351 0.39067,2.23568 0.4557,2.7787 0.3989,3.32938 l -0.0595,0.57497 h 0.44906 c 0.24693,0 0.47706,0.0453 0.5113,0.10068 0.0687,0.11135 0.44471,0.0677 0.71316,-0.0826 0.121,-0.0677 0.21369,-0.0551 0.31077,0.0419 0.11778,0.11778 0.18458,0.11442 0.44968,-0.0226 0.29113,-0.15057 0.31987,-0.14928 0.44354,0.02 0.0725,0.0995 0.1324,0.21722 0.1324,0.26172 0,0.0446 0.28353,0.081 0.63001,0.081 0.76974,0 1.19202,0.16776 1.10663,0.43964 -0.0487,0.15448 -0.0203,0.17938 0.15182,0.1343 0.11632,-0.0306 0.2114,-0.0146 0.2114,0.0354 0,0.0498 0.0674,0.0906 0.14998,0.0906 0.0826,0 0.22948,0.0788 0.32666,0.175 0.3543,0.35099 0.77819,0.5649 1.06242,0.53616 0.23685,-0.024 0.27733,0.001 0.22386,0.14087 -0.0516,0.13415 -0.0281,0.15381 0.11091,0.0929 0.0967,-0.0427 0.28863,-0.0656 0.42611,-0.0517 0.45341,0.0463 0.74689,0.0336 0.9749,-0.0419 0.17137,-0.0568 0.22503,-0.0361 0.22503,0.0871 0,0.17999 0.17221,0.20774 0.39912,0.0643 z m -10.89633,-1.60372 c 0.45873,-0.24552 0.51407,-1.5549 0.1478,-3.49861 -0.13751,-0.72967 -0.24999,-1.52216 -0.24999,-1.76112 0,-0.42713 -0.004,-0.43254 -0.24996,-0.32057 -0.13751,0.0627 -0.24999,0.15433 -0.24999,0.20375 0,0.0494 -0.046,0.0614 -0.102,0.0267 -0.0561,-0.0346 -0.16505,0.0877 -0.24198,0.27175 -0.0894,0.21406 -0.2702,0.39697 -0.50099,0.50703 -0.19857,0.0947 -0.38686,0.23946 -0.41844,0.32174 -0.0314,0.0824 -0.10054,0.12289 -0.1536,0.0902 -0.0529,-0.0327 -0.088,10e-4 -0.0776,0.0757 0.0379,0.27682 -0.0117,0.40032 -0.2474,0.61906 l -0.24222,0.22448 0.41056,0.64569 c 0.22581,0.35511 0.58303,1.05066 0.7938,1.54565 0.21078,0.49496 0.45861,0.95617 0.55076,1.02492 0.20235,0.15101 0.57388,0.16165 0.83141,0.024 z m -6.20261,-1.42375 c 0,-0.20013 0.11004,-0.22569 0.27206,-0.0637 0.13108,0.13108 0.32868,0.0352 0.32868,-0.1596 0,-0.0751 0.22432,-0.24116 0.49845,-0.36908 0.40978,-0.19122 0.51928,-0.29921 0.61573,-0.60729 0.0965,-0.30815 0.0912,-0.40583 -0.0298,-0.54994 -0.081,-0.0963 -0.57967,-0.71525 -1.10851,-1.37522 -1.64015,-2.04681 -1.43169,-1.86805 -2.22881,-1.91142 -0.81817,-0.0444 -1.01648,-0.0745 -1.11065,-0.16889 -0.0381,-0.0381 -0.14861,-0.0696 -0.2452,-0.0696 -0.0966,0 -0.30907,-0.12362 -0.47216,-0.27499 -0.4464,-0.41398 -0.57105,-0.5011 -0.77229,-0.53984 -0.1077,-0.0207 -0.21749,-0.16515 -0.265,-0.34855 -0.0475,-0.18281 -0.16239,-0.33435 -0.2763,-0.36414 -0.1074,-0.0281 -0.27613,-0.18419 -0.37515,-0.34694 -0.27724,-0.4558 -0.91326,-1.12536 -1.06899,-1.12536 -0.0767,0 -0.16503,-0.0663 -0.19616,-0.14758 -0.0311,-0.0811 -0.24969,-0.23226 -0.4857,-0.3358 -0.71903,-0.3155 -0.91219,-0.40958 -1.35354,-0.65928 -0.31616,-0.17888 -0.49488,-0.22104 -0.69997,-0.1652 -0.15975,0.0434 -0.35437,0.0294 -0.46344,-0.0335 -0.13898,-0.0802 -0.1994,-0.0773 -0.23145,0.0102 -0.0238,0.0658 -0.1077,0.0947 -0.18627,0.0646 -0.088,-0.0338 -0.17528,0.0326 -0.22707,0.17268 -0.0552,0.14956 -0.10901,0.1874 -0.15653,0.11063 -0.12714,-0.20579 -0.36056,-0.12977 -0.36056,0.11734 0,0.12904 -0.0832,0.30969 -0.18461,0.40156 -0.16104,0.14569 -0.17318,0.24026 -0.095,0.74044 0.21469,1.37466 0.77358,3.20157 1.42957,4.67315 0.3682,0.82597 0.47822,0.93025 0.92758,0.87922 0.20476,-0.0232 0.57647,-0.0656 0.82592,-0.0941 0.41198,-0.0472 0.46644,-0.0279 0.59372,0.21001 0.0833,0.15556 0.19673,0.24013 0.27957,0.20833 0.0766,-0.0294 0.19194,-0.0549 0.2562,-0.0567 0.0643,-0.003 0.0295,-0.0691 -0.0773,-0.15001 -0.26874,-0.20327 -0.0377,-0.18449 0.33052,0.0269 0.16644,0.0956 0.32336,0.25302 0.34872,0.34999 0.0256,0.0975 0.1397,0.17628 0.25545,0.17628 0.11515,0 0.20935,0.045 0.20935,0.1 0,0.0549 0.0627,0.0998 0.13941,0.0998 0.0767,0 0.16715,0.0726 0.2012,0.16136 0.0358,0.0938 0.1359,0.14204 0.23862,0.11515 0.0972,-0.0256 0.22671,0.007 0.28781,0.0725 0.0611,0.0652 0.39006,0.17808 0.73109,0.25044 0.34104,0.0725 0.64332,0.19208 0.67167,0.266 0.0283,0.0739 0.11588,0.13458 0.19442,0.13458 0.21611,0 0.63569,0.30456 0.63569,0.46145 0,0.16944 0.0484,0.17255 0.29396,0.0191 0.15096,-0.0944 0.25068,-0.0897 0.47362,0.0215 0.45038,0.22484 0.65188,0.26987 1.15654,0.25853 0.38059,-0.009 0.47435,-0.0452 0.47498,-0.18563 z m -5.78455,-1.96558 c -0.10053,-0.0624 -0.10521,-0.10302 -0.0183,-0.1568 0.13722,-0.0848 0.24023,-0.009 0.1894,0.1381 -0.0208,0.0605 -0.0913,0.0682 -0.17108,0.0188 z m 19.93745,-0.71402 c 0.0355,-0.0577 0.13955,-0.0925 0.23087,-0.0776 0.0915,0.0151 0.2274,-0.0117 0.30231,-0.0582 0.0849,-0.0533 0.16627,-0.0367 0.21607,0.0438 0.0605,0.0981 0.15819,0.0633 0.40596,-0.14525 0.31848,-0.26798 0.32867,-0.26971 0.43394,-0.0741 0.0915,0.1702 0.13415,0.18101 0.28277,0.0719 0.23995,-0.17597 0.21939,-0.33401 -0.05,-0.38462 -0.12772,-0.024 -0.0725,-0.0421 0.12787,-0.0415 0.35701,7.5e-4 0.80547,-0.1758 0.78272,-0.30803 -0.007,-0.0395 0.0221,-0.21825 0.0636,-0.397 0.0769,-0.3286 0.20148,-0.42315 0.27346,-0.20728 0.0741,0.22242 0.27893,-0.0267 0.21885,-0.26617 -0.0535,-0.21299 -0.0165,-0.24464 0.37461,-0.322 0.23867,-0.0474 0.43475,-0.12933 0.43585,-0.18264 0.003,-0.1416 0.37866,-0.7468 0.46368,-0.7468 0.0399,0 0.10024,0.045 0.13429,0.1 0.14394,0.23274 0.33897,0.0874 0.36894,-0.27499 0.0295,-0.35504 0.0512,-0.37663 0.40813,-0.40612 0.20737,-0.0172 0.35681,-0.064 0.33204,-0.1039 -0.0245,-0.04 0.0785,-0.15575 0.22934,-0.25717 0.25471,-0.17119 0.2828,-0.26061 0.39289,-1.25056 0.18492,-1.66292 0.16174,-2.14556 -0.11851,-2.47146 l -0.23713,-0.27567 -0.65721,0.4282 c -0.798,0.51991 -1.43868,0.72834 -2.16835,0.70537 -0.77976,-0.0245 -0.77849,-0.025 -0.94992,0.30659 -0.11968,0.23128 -0.22321,0.29996 -0.45255,0.29996 -0.26366,0 -0.29741,0.034 -0.29741,0.29937 0,0.2358 -0.0877,0.36276 -0.41247,0.59814 -0.22684,0.16434 -0.45091,0.27502 -0.49788,0.24599 -0.047,-0.0291 -0.18259,-7.6e-4 -0.30132,0.0627 -0.22676,0.12143 -0.33198,0.14028 -1.39948,0.25053 -0.45031,0.0466 -0.68349,0.0323 -0.73085,-0.0441 -0.0381,-0.0618 -0.17674,-0.11253 -0.30777,-0.11253 -0.13094,0 -0.2648,-0.0431 -0.2973,-0.0956 -0.0324,-0.0528 -0.12465,-0.0704 -0.20501,-0.0394 -0.0804,0.0308 -0.17213,-0.0117 -0.20406,-0.0953 -0.0317,-0.0831 -0.16729,-0.17877 -0.30083,-0.21226 -0.13342,-0.0335 -0.24274,-0.12451 -0.24274,-0.20226 0,-0.0778 -0.0978,-0.17241 -0.21729,-0.21033 -0.11953,-0.0378 -0.30913,-0.15453 -0.42138,-0.2591 -0.20347,-0.18958 -0.20463,-0.18793 -0.41314,0.58719 -0.24064,0.89466 -0.53319,1.58073 -0.95308,2.23508 -0.16223,0.25281 -0.29497,0.48945 -0.29497,0.52588 0,0.0365 0.13006,0.0662 0.28932,0.0662 0.16488,0 0.31402,0.0645 0.34681,0.15 0.0364,0.0948 0.18983,0.14999 0.4178,0.14999 0.36285,0 0.76207,0.24462 0.5271,0.32294 -0.26843,0.0894 0.0371,0.34459 0.62254,0.51998 0.6727,0.20152 1.11266,0.52325 0.89739,0.65629 -0.16222,0.1001 0.0298,0.22085 0.22971,0.14423 0.082,-0.0314 0.1786,-0.009 0.21492,0.0497 0.0364,0.0587 0.12845,0.10683 0.20505,0.10683 0.0766,0 0.34504,0.13912 0.59672,0.30885 0.39987,0.26983 0.49517,0.29574 0.75495,0.20517 0.24064,-0.0839 0.29737,-0.0761 0.29737,0.0412 0,0.168 0.15835,0.19304 0.25296,0.04 z m 9.85913,-0.5702 c 0.74508,-1.65259 0.76515,-1.81953 0.21942,-1.82334 -0.11983,-7.8e-4 -0.2882,-0.0718 -0.37419,-0.15792 -0.0859,-0.0859 -0.1964,-0.13152 -0.24538,-0.10127 -0.049,0.0304 -0.19793,-0.0307 -0.33107,-0.13546 -0.13313,-0.10463 -0.40685,-0.22132 -0.60828,-0.25911 -0.23228,-0.0437 -0.38829,-0.1381 -0.42642,-0.2582 -0.0332,-0.1042 -0.10477,-0.18949 -0.15951,-0.18949 -0.1343,0 -0.0146,0.80496 0.22487,1.49989 0.18494,0.53922 1.16114,2.09416 1.31706,2.09795 0.0435,0.001 0.21616,-0.30181 0.3835,-0.67302 z m -20.86144,0.27498 c 0.0348,-0.11018 0.10478,-0.19998 0.1547,-0.19998 0.0503,0 0.18779,-0.19123 0.30581,-0.42497 0.11793,-0.23374 0.27619,-0.49247 0.35148,-0.57496 0.0754,-0.0826 0.25374,-0.29636 0.39652,-0.47524 0.14292,-0.17891 0.29649,-0.3025 0.3415,-0.27467 0.18398,0.11369 0.40585,-0.0737 0.33956,-0.28689 -0.0647,-0.20818 -0.0614,-0.20887 0.13883,-0.0301 0.2968,0.26494 0.66365,0.18494 0.70268,-0.15325 0.0303,-0.26353 0.0818,-0.29773 0.63058,-0.41906 0.14394,-0.0317 0.42639,-0.25874 0.6276,-0.50429 0.69323,-0.84603 1.14912,-2.00878 1.30495,-3.32826 0.0604,-0.51173 0.0547,-0.52653 -0.2862,-0.74994 -0.19136,-0.12538 -0.36936,-0.31002 -0.39567,-0.41037 -0.0402,-0.15395 -0.0817,-0.16437 -0.26424,-0.0665 -0.176,0.0943 -0.30987,0.0758 -0.71532,-0.0986 -0.63632,-0.27374 -0.94333,-0.20878 -1.54085,0.32598 -0.25381,0.22718 -0.55699,0.46068 -0.67374,0.51889 -0.11676,0.0583 -0.3091,0.24958 -0.42755,0.42531 -0.11837,0.17575 -0.2406,0.29422 -0.2715,0.26333 -0.0311,-0.031 -0.0853,0.0994 -0.12115,0.28949 -0.0482,0.25742 -0.20833,0.46635 -0.6267,0.81811 -0.309,0.25982 -0.57038,0.53053 -0.5808,0.60158 -0.0381,0.26065 -0.3686,0.65489 -0.54876,0.65489 -0.11763,0 -0.16577,0.051 -0.13166,0.1397 0.0355,0.0922 -0.0859,0.20133 -0.35643,0.32069 -0.25517,0.11252 -0.43126,0.26551 -0.46626,0.40495 -0.0311,0.12319 -0.16641,0.29618 -0.30106,0.38443 l -0.24483,0.16041 0.52061,0.61981 c 0.28632,0.34087 0.81256,0.99102 1.16945,1.44476 0.66726,0.84838 0.85846,0.97176 0.96851,0.62495 z m 21.54871,-2.35575 c 0,-0.0794 0.0418,-0.14409 0.0929,-0.14409 0.24895,0 0.99547,-3.79493 0.80662,-4.10044 -0.0352,-0.0571 -0.16678,-0.12363 -0.29209,-0.14787 -0.32053,-0.0617 -0.5058,-0.23934 -0.43689,-0.41882 0.0684,-0.17823 -0.12933,-0.32885 -0.43482,-0.33105 -0.22154,-0.001 -0.4242,-0.29904 -0.20753,-0.30465 0.17124,-0.004 -0.40721,-0.49681 -0.58371,-0.49681 -0.0793,0 -0.14438,-0.0674 -0.14438,-0.15001 0,-0.17439 -0.26516,-0.2044 -0.32122,-0.0364 -0.0208,0.0624 -0.11895,-0.0102 -0.21816,-0.16153 -0.15586,-0.23783 -0.16105,-0.29447 -0.0381,-0.41731 0.19025,-0.19023 0.45111,-0.0763 0.63388,0.27733 0.0855,0.16533 0.23046,0.28786 0.34063,0.28786 0.1058,0 0.26888,0.1305 0.36359,0.29093 0.0944,0.16 0.33329,0.37591 0.53062,0.47984 0.19737,0.1039 0.35877,0.24103 0.35877,0.30473 0,0.11691 0.33645,0.41536 0.47498,0.42123 0.13225,0.006 0.0789,-2.51231 -0.0753,-3.54661 -0.20983,-1.40898 -0.40625,-2.23724 -0.82606,-3.48355 l -0.36498,-1.08371 -0.49326,-0.24991 c -1.46247,-0.7411 -3.92264,-1.25086 -5.01868,-1.03989 -1.65393,0.31837 -3.2677,1.36972 -3.81574,2.48589 -0.26409,0.53784 -0.28046,0.64754 -0.27878,1.87126 0,1.11536 0.0341,1.3801 0.22831,1.8646 0.40102,0.99939 1.52773,2.05325 1.92797,1.80328 0.11618,-0.0725 0.20456,-0.0783 0.24308,-0.0161 0.0332,0.0541 0.12217,0.0979 0.19757,0.0979 0.0973,0 0.13182,-0.12304 0.1191,-0.42498 -0.0167,-0.3948 0,-0.42724 0.25794,-0.45671 0.17915,-0.0206 0.32461,-0.12583 0.41474,-0.30021 0.1694,-0.32757 0.55931,-0.69702 0.55931,-0.52999 0,0.0913 0.0523,0.0908 0.22498,-0.003 0.37081,-0.19981 1.64969,-0.1833 2.27448,0.0292 0.35686,0.12144 0.56205,0.14985 0.58498,0.0811 0.0224,-0.0669 0.12377,-0.0481 0.27537,0.0513 0.13196,0.0865 0.23998,0.13371 0.23998,0.10507 0,-0.0286 0.09,0.0376 0.2,0.14768 0.17838,0.1784 0.28601,0.69996 0.14438,0.69996 -0.0307,0 -0.3523,-0.15748 -0.715,-0.35 -0.36274,-0.19247 -0.78931,-0.34996 -0.94791,-0.34996 -0.15866,0 -0.39937,-0.0725 -0.53494,-0.16149 -0.15136,-0.0992 -0.24645,-0.11851 -0.24645,-0.05 0,0.0612 -0.0614,0.1115 -0.13634,0.1115 -0.075,0 -0.25126,0.0902 -0.39148,0.20054 -0.1605,0.12626 -0.26878,0.15902 -0.29232,0.0884 -0.0245,-0.0739 -0.16243,-0.045 -0.40584,0.0853 -0.20266,0.10872 -0.33966,0.22632 -0.30449,0.26152 0.0352,0.0352 -0.009,0.064 -0.0959,0.064 -0.088,0 -0.18883,0.0912 -0.22421,0.20263 -0.0355,0.1115 -0.11706,0.19117 -0.18175,0.17712 -0.1283,-0.0279 -0.5674,0.316 -0.5674,0.44432 0,0.16658 0.57632,-0.0687 1.24341,-0.50769 0.57513,-0.37844 0.78835,-0.46211 1.24994,-0.49044 0.68086,-0.0419 1.18686,0.21508 1.66923,0.84751 0.51523,0.6755 0.59678,1.29254 0.39988,3.02633 -0.20482,1.80372 -0.20488,1.79989 0.0231,1.79989 0.10215,0 0.44911,0.14044 0.77088,0.31215 0.32174,0.1717 0.60025,0.26643 0.61886,0.2105 0.0387,-0.11661 0.6242,0.0703 0.6242,0.19922 0,0.0428 0.0624,0.078 0.13897,0.078 0.0764,0 0.13678,0.0563 0.13429,0.12494 -0.0117,0.32224 0.0355,0.48141 0.12685,0.42499 0.0551,-0.034 0.1,-0.1267 0.1,-0.20589 z m -27.81126,-1.91899 c -1.10706,-1.13571 -1.32353,-1.46195 -1.54762,-2.33302 -0.31932,-1.24111 -0.0433,-3.58023 0.61693,-5.22964 0.14584,-0.3641 0.23911,-0.72946 0.20748,-0.81193 -0.0484,-0.12567 -0.35553,-0.1499 -1.90511,-0.1499 -1.51717,0 -2.88293,-0.0701 -4.49874,-0.23101 -0.21821,-0.0218 -0.25681,0.0858 -0.5684,1.58094 -0.14867,0.71347 -0.22297,1.5299 -0.2594,2.84982 -0.0482,1.74322 -0.0414,1.83683 0.11545,1.62323 0.0916,-0.12465 0.21202,-0.19852 0.26765,-0.16415 0.0557,0.0343 0.16848,-0.0336 0.2508,-0.15114 0.0824,-0.1175 0.29244,-0.27326 0.46697,-0.34606 0.28402,-0.11852 0.34816,-0.11092 0.6107,0.0726 0.20351,0.14233 0.30561,0.16821 0.33349,0.0846 0.0224,-0.0662 0.0782,-0.0969 0.12465,-0.0682 0.0466,0.0286 0.11282,0.007 0.14738,-0.0494 0.0352,-0.0566 -0.0311,-0.10142 -0.14899,-0.10142 -0.11661,0 -0.18567,-0.0422 -0.1538,-0.0938 0.10887,-0.17592 0.82153,0.0837 0.98374,0.35845 0.044,0.0745 0.21268,0.13531 0.37498,0.13531 0.16223,0 0.29501,0.0449 0.29501,0.0998 0,0.0549 0.0484,0.1 0.10712,0.1 0.059,0 0.17506,0.0678 0.25805,0.15091 0.083,0.083 0.19173,0.12567 0.24157,0.0948 0.0498,-0.0308 0.18969,0.0364 0.31077,0.14907 0.121,0.11282 0.30182,0.2051 0.40163,0.2051 0.23667,0 0.80302,0.30612 1.12801,0.6097 0.35304,0.32973 0.68001,0.86505 0.60379,0.98837 -0.0359,0.0583 0.0387,0.10171 0.17425,0.10171 0.13298,0 0.36342,0.13166 0.52457,0.29998 0.1581,0.16497 0.2542,0.29997 0.21358,0.29997 -0.1438,0 0.44617,0.47975 0.73911,0.6011 0.16349,0.0677 0.29725,0.16266 0.29725,0.21099 0,0.0484 0.0535,0.0878 0.11866,0.0878 0.0652,0 -0.30893,-0.43872 -0.8316,-0.97495 z m -4.78677,-3.3248 c 0,-0.0549 0.045,-0.0998 0.1,-0.0998 0.0551,0 0.0998,0.045 0.0998,0.0998 0,0.0549 -0.045,0.1 -0.0998,0.1 -0.0549,0 -0.1,-0.045 -0.1,-0.1 z m 7.92396,3.43961 c 0.32522,-0.29378 0.45212,-0.34947 0.68875,-0.30214 0.2643,0.0529 0.30424,0.0226 0.449,-0.33913 0.0874,-0.21846 0.19203,-0.37672 0.23248,-0.35173 0.11296,0.0699 0.65799,-0.55684 0.80158,-0.92171 0.0703,-0.17873 0.16255,-0.32498 0.20491,-0.32498 0.0424,0 0.10317,-0.10405 0.13517,-0.23152 0.0709,-0.2828 0.34901,-0.60832 0.59892,-0.70119 0.11866,-0.044 0.16321,-0.12655 0.12377,-0.22918 -0.044,-0.11442 -0.0183,-0.14365 0.0896,-0.10215 0.19136,0.0734 0.46768,-0.0281 0.39532,-0.14511 -0.0298,-0.0487 0.0194,-0.0601 0.1096,-0.0253 0.13254,0.051 0.15768,0.009 0.13006,-0.22276 -0.0298,-0.25014 0.0343,-0.33097 0.51594,-0.64843 0.55589,-0.36659 1.49991,-0.6082 1.49991,-0.38392 0,0.0978 0.88008,0.043 0.98438,-0.0611 0.0215,-0.0216 0.10273,0.024 0.18015,0.10141 0.0853,0.0854 0.28762,0.12816 0.51309,0.10873 0.20473,-0.0178 0.42849,0.0131 0.49725,0.0665 0.0935,0.0738 0.12494,0.0317 0.12494,-0.16655 0,-0.35002 -0.25496,-0.9478 -0.52975,-1.24209 -0.4387,-0.46986 -0.72208,-0.53955 -2.51591,-0.61872 -1.8058,-0.0798 -2.25137,-0.18204 -3.17847,-0.72994 -1.40295,-0.82914 -2.22187,-2.50358 -1.9728,-4.03387 0.17418,-1.07033 0.43149,-1.66037 1.1279,-2.58682 0.65434,-0.8705 0.6562,-1.0768 0.0146,-1.52973 -1.0878,-0.76676 -1.10431,-2.2376 -0.0341,-3.01306 0.25251,-0.18291 0.8952,-0.45492 1.58019,-0.66874 1.51715,-0.47362 1.80926,-0.73507 1.80926,-1.61953 0,-0.48263 -0.0454,-0.65707 -0.22503,-0.86597 l -0.22504,-0.26159 -0.79991,0.16504 c -2.48583,0.51298 -5.28257,1.83453 -7.3956,3.49476 -1.04589,0.82171 -2.60498,2.40201 -3.34551,3.39086 -1.14856,1.53376 -2.65935,4.35619 -2.4421,4.56237 0.12202,0.11588 2.90552,0.29831 4.54921,0.29831 1.60303,0 2.04832,0.0975 2.5155,0.55132 0.30396,0.29522 0.56887,0.89466 0.56887,1.28733 0,0.091 -0.15839,0.57087 -0.35196,1.06629 -0.48433,1.23937 -0.67021,2.16083 -0.68475,3.39467 -0.009,0.84468 0.0238,1.11837 0.17219,1.39993 0.1542,0.29229 2.52823,2.79984 2.65079,2.79984 0.0215,0 0.21877,-0.16211 0.43804,-0.36018 z m 13.65899,-1.49995 c 0.21043,-0.14739 0.23843,-0.14695 0.34987,0.006 0.0763,0.1042 0.18657,0.14058 0.29772,0.0979 0.18787,-0.072 0.17068,-0.31034 -0.0194,-0.26812 -0.0618,0.0146 -0.11252,-0.0216 -0.11252,-0.0788 0,-0.057 0.10112,-0.095 0.225,-0.0845 0.63412,0.0545 0.72625,0.006 0.86413,-0.46175 0.12889,-0.43672 0.25537,-0.56618 0.33109,-0.33902 0.0238,0.0715 0.0814,0.0576 0.16126,-0.0387 0.10463,-0.12582 0.0555,-0.19003 -0.30707,-0.40253 -0.5227,-0.30631 -1.24523,-1.0617 -1.59829,-1.67099 -0.73579,-1.26972 -0.95961,-3.48841 -0.50039,-4.96024 0.43811,-1.40412 1.34918,-2.41049 2.92413,-3.23002 1.39015,-0.72335 1.88152,-0.84559 3.39982,-0.84572 1.14394,-8e-5 1.50689,0.0409 2.37885,0.26892 0.56589,0.14797 1.05101,0.26903 1.07795,0.26903 0.0846,0 -0.91815,-1.43982 -1.54018,-2.21157 -0.87111,-1.08078 -2.62812,-2.74018 -3.71652,-3.5101 -3.03926,-2.14993 -6.98285,-3.38285 -10.79935,-3.37633 -1.0524,0.003 -1.21155,0.0549 -1.09363,0.36505 0.14772,0.38863 0.11106,1.75915 -0.0601,2.24434 -0.30432,0.86244 -0.95682,1.33473 -2.55825,1.85167 -0.60947,0.19676 -1.19509,0.44466 -1.30136,0.55088 -0.19087,0.19091 -0.18618,0.19991 0.40171,0.7647 1.02793,0.98755 1.0713,1.78478 0.16893,3.10244 -0.7955,1.16156 -0.98047,1.57984 -1.03512,2.34076 -0.084,1.17086 0.50103,2.02856 1.77813,2.60665 0.37102,0.16795 0.63419,0.20086 1.49989,0.18759 1.93394,-0.0297 3.01876,0.23986 3.79729,0.9432 0.54552,0.49288 0.8618,1.05128 1.04353,1.84249 0.14826,0.64548 0.32397,2.11002 0.28804,2.40047 -0.0102,0.0851 0.11705,0.21306 0.28768,0.28855 0.16862,0.0745 0.50839,0.34336 0.75505,0.59712 0.24669,0.25377 0.54514,0.46586 0.66324,0.47131 0.38189,0.0177 0.46495,0.0387 0.4529,0.11515 -0.0303,0.19208 0.0281,0.22335 0.22257,0.11925 0.14248,-0.0761 0.24358,-0.0799 0.31216,-0.0117 0.0558,0.0557 0.1589,0.0793 0.22915,0.0525 0.0703,-0.0269 0.15736,-7.6e-4 0.19368,0.0579 0.0932,0.15063 0.2726,0.13283 0.53845,-0.0533 z m -24.61446,-0.45849 c -0.0317,-0.0798 -0.0555,-0.0561 -0.0604,0.0605 -0.004,0.1055 0.0194,0.16447 0.0526,0.13122 0.0332,-0.0332 0.0367,-0.11953 0.009,-0.19166 z m 19.29884,-2.49984 c -0.0316,-0.0798 -0.0557,-0.0561 -0.0604,0.0604 -0.004,0.10551 0.0194,0.16447 0.0526,0.13123 0.0332,-0.0332 0.0367,-0.11939 0.009,-0.19166 z m 21.63037,13.61791 c 0,-0.0549 0.0927,-0.0998 0.20591,-0.0998 0.11325,0 0.17806,0.0449 0.14408,0.0998 -0.034,0.055 -0.12669,0.1 -0.2059,0.1 -0.0792,0 -0.14409,-0.0449 -0.14409,-0.1 z m -0.34997,-5.59966 c 0.034,-0.055 0.10682,-0.0998 0.16181,-0.0998 0.0549,0 0.072,0.045 0.0381,0.0998 -0.034,0.0549 -0.10682,0.0999 -0.16178,0.0999 -0.0551,0 -0.072,-0.045 -0.0381,-0.0999 z m -0.64996,-0.15588 c 0,-0.0858 0.045,-0.12816 0.0998,-0.0941 0.055,0.0341 0.0998,0.10419 0.0998,0.15588 0,0.0517 -0.045,0.0941 -0.0998,0.0941 -0.0549,0 -0.0998,-0.0702 -0.0998,-0.1559 z m -1.37374,-5.41283 c 0.0931,-0.0931 0.20257,-0.13561 0.24355,-0.0944 0.0409,0.0409 0.009,0.11646 -0.0725,0.16749 -0.24344,0.15395 -0.35164,0.10785 -0.1709,-0.0728 z"
         style="fill:#008db1;fill-opacity:1;stroke-width:0.09999397" />
      <text
         xml:space="preserve"
         style="font-style:normal;font-weight:normal;font-size:26.55368233px;line-height:1.25;font-family:sans-serif;letter-spacing:0px;word-spacing:0px;fill:#ffffff;fill-opacity:1;stroke:none;stroke-width:0.66384202"
         x="694.06543"
         y="-271.02948"
         id="text4636"><tspan
           sodipodi:role="line"
           id="tspan4634"
           x="694.06543"
           y="-271.02948"
           style="font-style:normal;font-variant:normal;font-weight:normal;font-stretch:normal;font-family:'Permanent Marker';-inkscape-font-specification:'Permanent Marker';fill:#ffffff;stroke-width:0.66384202">SeeRise</tspan></text>
      <text
         id="text4651"
         y="-257.86557"
         x="693.86194"
         style="font-style:normal;font-weight:normal;font-size:7.02080917px;line-height:1.25;font-family:sans-serif;letter-spacing:0px;word-spacing:0px;fill:#ffffff;fill-opacity:1;stroke:none;stroke-width:0.17552023"
         xml:space="preserve"><tspan
           style="fill:#ffffff;stroke-width:0.17552023"
           y="-257.86557"
           x="693.86194"
           id="tspan4649"
           sodipodi:role="line">See how the sea level rises</tspan></text>
    </g>
  </g>
</svg>
